<svg width="363" height="43" fill="none" xmlns="http://www.w3.org/2000/svg"><g clip-path="url(#a)" fill="#394149"><path d="M21.6 4a13.4 13.4 0 0 0-9.474 3.925l-8.201 8.2A13.4 13.4 0 0 0 0 25.602C0 33 6 39 13.4 39a13.4 13.4 0 0 0 9.474-3.925l5.673-5.672 16.528-16.529a6.4 6.4 0 0 1 10.611 2.54l5.217-5.216A13.39 13.39 0 0 0 49.6 4a13.4 13.4 0 0 0-9.474 3.925l-22.201 22.2a6.4 6.4 0 1 1-9.05-9.05l8.2-8.2a6.4 6.4 0 0 1 10.611 2.54l5.217-5.216A13.39 13.39 0 0 0 21.6 4Z"/><path d="M45.925 30.126a6.4 6.4 0 0 1-10.61-2.54l-5.217 5.216A13.39 13.39 0 0 0 41.4 39a13.4 13.4 0 0 0 9.474-3.925l22.201-22.2a6.4 6.4 0 1 1 9.05 9.05l-8.2 8.2a6.4 6.4 0 0 1-10.611-2.54l-5.216 5.217A13.389 13.389 0 0 0 69.4 39a13.4 13.4 0 0 0 9.474-3.925l8.201-8.2A13.4 13.4 0 0 0 91 17.398C91 10 85 4 77.6 4a13.4 13.4 0 0 0-9.474 3.925l-22.201 22.2Z"/></g><path d="M113.34 8.5c6.755 0 11.9 5.32 11.9 12.25S120.095 33 113.34 33h-9.8V8.5h9.8Zm0 19.11c3.85 0 6.51-2.66 6.51-6.86s-2.66-6.86-6.51-6.86h-4.2v13.72h4.2Zm16.798-13.65c-1.715 0-3.15-1.435-3.15-3.15 0-1.715 1.435-3.15 3.15-3.15 1.715 0 3.15 1.435 3.15 3.15 0 1.715-1.435 3.15-3.15 3.15ZM127.513 33V15.5h5.25V33h-5.25Zm21.097-17.5h5.25V33h-5.25v-1.645c-1.155 1.33-2.87 2.135-5.215 2.135-4.585 0-8.365-4.025-8.365-9.24s3.78-9.24 8.365-9.24c2.345 0 4.06.805 5.215 2.135V15.5Zm-4.165 13.02c2.415 0 4.165-1.645 4.165-4.27 0-2.625-1.75-4.27-4.165-4.27s-4.165 1.645-4.165 4.27c0 2.625 1.75 4.27 4.165 4.27Zm22.822-13.51c3.535 0 6.545 2.52 6.545 7.245V33h-5.25v-9.975c0-2.17-1.365-3.185-3.045-3.185-1.925 0-3.255 1.12-3.255 3.605V33h-5.25V15.5h5.25v1.645c.945-1.295 2.695-2.135 5.005-2.135Zm19.705 0c3.535 0 6.545 2.52 6.545 7.245V33h-5.25v-9.975c0-2.17-1.365-3.185-3.045-3.185-1.925 0-3.255 1.12-3.255 3.605V33h-5.25V15.5h5.25v1.645c.945-1.295 2.695-2.135 5.005-2.135Zm14.14 11.34c.665 1.82 2.275 2.45 4.2 2.45 1.435 0 2.66-.56 3.36-1.33l4.2 2.415c-1.715 2.38-4.305 3.605-7.63 3.605-5.985 0-9.695-4.025-9.695-9.24s3.78-9.24 9.31-9.24c5.11 0 8.89 3.955 8.89 9.24 0 .735-.07 1.435-.21 2.1h-12.425Zm-.105-3.92h7.525c-.56-2.03-2.135-2.765-3.71-2.765-1.995 0-3.325.98-3.815 2.765Zm31.678 11.025c-2.287 0-4.247-.537-5.88-1.61-1.61-1.073-2.742-2.543-3.395-4.41l2.8-1.61c.957 2.963 3.138 4.445 6.545 4.445 1.68 0 2.963-.338 3.85-1.015.887-.7 1.33-1.622 1.33-2.765 0-1.167-.443-2.042-1.33-2.625-.887-.583-2.368-1.202-4.445-1.855a99.84 99.84 0 0 1-2.345-.77 29.189 29.189 0 0 1-2.03-.91c-.793-.42-1.388-.84-1.785-1.26-.397-.443-.758-1.015-1.085-1.715-.303-.7-.455-1.493-.455-2.38 0-2.123.747-3.803 2.24-5.04 1.493-1.26 3.313-1.89 5.46-1.89 1.937 0 3.617.49 5.04 1.47a9.103 9.103 0 0 1 3.255 3.885l-2.73 1.575c-1.05-2.52-2.905-3.78-5.565-3.78-1.33 0-2.403.327-3.22.98-.817.653-1.225 1.54-1.225 2.66 0 1.073.385 1.89 1.155 2.45.77.56 2.1 1.143 3.99 1.75.677.21 1.155.362 1.435.455.28.093.712.257 1.295.49.607.233 1.05.42 1.33.56.28.14.653.338 1.12.595.49.257.852.502 1.085.735.233.233.502.525.805.875.327.327.56.665.7 1.015.14.35.257.758.35 1.225.117.443.175.922.175 1.435 0 2.147-.782 3.862-2.345 5.145-1.563 1.26-3.605 1.89-6.125 1.89ZM259.101 8.5v3.08h-7.245V33h-3.22V11.58h-7.21V8.5h17.675Zm18.026 22.61c-1.703 1.563-3.908 2.345-6.615 2.345-2.707 0-4.923-.782-6.65-2.345-1.703-1.587-2.555-3.698-2.555-6.335V8.5h3.255v16.135c0 1.727.513 3.103 1.54 4.13 1.027 1.003 2.497 1.505 4.41 1.505 1.913 0 3.383-.502 4.41-1.505 1.027-1.027 1.54-2.403 1.54-4.13V8.5h3.22v16.275c0 2.637-.852 4.748-2.555 6.335ZM293.514 8.5c3.337 0 6.102 1.19 8.295 3.57 2.217 2.357 3.325 5.25 3.325 8.68 0 3.43-1.108 6.335-3.325 8.715-2.193 2.357-4.958 3.535-8.295 3.535h-9.555V8.5h9.555Zm0 21.42c2.497 0 4.539-.875 6.125-2.625 1.587-1.75 2.38-3.932 2.38-6.545s-.793-4.795-2.38-6.545c-1.586-1.75-3.628-2.625-6.125-2.625h-6.3v18.34h6.3ZM308.381 8.5h3.255V33h-3.255V8.5Zm28.181 21.245c-2.45 2.473-5.448 3.71-8.995 3.71-3.547 0-6.545-1.237-8.995-3.71-2.45-2.473-3.675-5.472-3.675-8.995 0-3.547 1.225-6.545 3.675-8.995 2.45-2.473 5.448-3.71 8.995-3.71 3.547 0 6.545 1.237 8.995 3.71 2.473 2.45 3.71 5.448 3.71 8.995 0 3.523-1.237 6.522-3.71 8.995Zm-15.75-2.205c1.82 1.82 4.072 2.73 6.755 2.73s4.923-.91 6.72-2.73c1.82-1.843 2.73-4.107 2.73-6.79 0-2.707-.91-4.97-2.73-6.79-1.797-1.843-4.037-2.765-6.72-2.765s-4.935.922-6.755 2.765c-1.797 1.82-2.695 4.083-2.695 6.79 0 2.683.898 4.947 2.695 6.79Zm31.696-22.315c5 0 9.05 4.025 9.05 9.025s-4.05 9.025-9.05 9.025c-5 0-9.05-4.025-9.05-9.025s4.05-9.025 9.05-9.025Zm0 17.45c4.625 0 8.375-3.75 8.375-8.425 0-4.675-3.75-8.425-8.375-8.425s-8.4 3.75-8.4 8.425c0 4.675 3.775 8.425 8.4 8.425Zm3.5-10.15c0 1.275-.6 2.25-1.875 2.65l2.1 3.7h-1.325l-1.95-3.475h-1.925v3.475h-1.2v-9.25h2.775c2.325 0 3.4 1.425 3.4 2.9Zm-4.975 1.725h1.625c1.475 0 2.15-.675 2.15-1.725 0-1.025-.725-1.75-2.15-1.75h-1.625v3.475Z" fill="#000"/><defs><clipPath id="a"><path fill="#fff" transform="translate(0 4)" d="M0 0h91v35H0z"/></clipPath></defs></svg>